<svg width="35" height="35" viewBox="0 0 35 35" fill="none" xmlns="http://www.w3.org/2000/svg">
<path d="M17.5 16.0416C19.9938 16.0416 21.875 14.1604 21.875 11.6666C21.875 9.17288 19.9938 7.29163 17.5 7.29163C15.0063 7.29163 13.125 9.17288 13.125 11.6666C13.125 14.1604 15.0063 16.0416 17.5 16.0416ZM17.5 10.2083C18.375 10.2083 18.9583 10.7916 18.9583 11.6666C18.9583 12.5416 18.375 13.125 17.5 13.125C16.625 13.125 16.0417 12.5416 16.0417 11.6666C16.0417 10.7916 16.625 10.2083 17.5 10.2083Z" fill="#2F9983"/>
<path d="M18.9583 17.5H16.0417C12.0167 17.5 8.75 20.7667 8.75 24.7917V25.5208C8.75 26.7312 9.72708 27.7083 10.9375 27.7083H24.0625C25.2729 27.7083 26.25 26.7312 26.25 25.5208V24.7917C26.25 20.7667 22.9833 17.5 18.9583 17.5ZM11.6667 24.7917C11.6667 22.3854 13.6354 20.4167 16.0417 20.4167H18.9583C21.3646 20.4167 23.3333 22.3854 23.3333 24.7917H11.6667Z" fill="#2F9983"/>
<path d="M9.47917 16.0417C10.1646 16.0417 10.7917 15.8667 11.3312 15.5604C10.6312 14.4375 10.2083 13.1104 10.2083 11.6667C10.2083 10.7042 10.3979 9.8 10.7187 8.96875C10.3396 8.8375 9.91667 8.75 9.47917 8.75C7.37917 8.75 5.83333 10.2958 5.83333 12.3958C5.83333 14.4958 7.37917 16.0417 9.47917 16.0417Z" fill="#2F9983"/>
<path d="M8.91042 17.5H8.02083C5.20625 17.5 2.91667 19.7896 2.91667 22.6042V24.0625C2.91667 24.4708 3.2375 24.7917 3.64583 24.7917H5.83333C5.83333 21.9333 7.01458 19.3521 8.91042 17.5Z" fill="#2F9983"/>
<path d="M25.5208 16.0417C27.6208 16.0417 29.1667 14.4958 29.1667 12.3958C29.1667 10.2958 27.6208 8.75 25.5208 8.75C25.0687 8.75 24.6604 8.8375 24.2812 8.96875C24.6021 9.8 24.7917 10.7042 24.7917 11.6667C24.7917 13.1104 24.3687 14.4375 23.6687 15.5604C24.2083 15.8667 24.8208 16.0417 25.5208 16.0417Z" fill="#2F9983"/>
<path d="M26.9792 17.5H26.0896C27.9854 19.3521 29.1667 21.9333 29.1667 24.7917H31.3542C31.7625 24.7917 32.0833 24.4708 32.0833 24.0625V22.6042C32.0833 19.7896 29.7938 17.5 26.9792 17.5Z" fill="#2F9983"/>
</svg>
