<svg width="35" height="35" viewBox="0 0 35 35" fill="none" xmlns="http://www.w3.org/2000/svg">
<path d="M31.1062 3.68957C30.5667 3.4854 29.9542 3.61665 29.5458 4.0104C29.4292 4.11249 26.8333 6.59165 22.4729 4.40415C19.4833 2.90207 14.3063 2.01249 9.52292 4.40415C3.26667 7.55415 1.06458 15.4729 4.52083 22.4146C5.075 23.5229 5.73125 24.4854 6.475 25.3458C6.05208 27.3875 5.81875 29.6333 5.81875 32.0833H8.73542C8.73542 30.4062 8.8375 28.9042 9.04167 27.5333C10.0188 28.1312 11.0688 28.5833 12.2063 28.8458C13.1688 29.0792 14.1313 29.1667 15.0792 29.1667C18.6229 29.1667 21.8458 27.7667 23.4208 26.5854C26.075 24.5875 28.2625 22.6917 30.4208 17.9958C32.4625 13.5187 32.0542 5.30832 32.025 4.95832C31.9958 4.38957 31.6312 3.89374 31.0917 3.68957H31.1062ZM27.7812 16.7854C25.9 20.8833 24.15 22.4 21.6854 24.2667C20.0813 25.4771 16.2896 26.8187 12.8917 26.0167C11.6958 25.7396 10.6313 25.2 9.69792 24.4417C12.3958 14.8312 20.0375 14.6271 20.4167 14.6271V13.1687V11.7104C20.1688 11.7104 15.3271 11.7687 11.2438 15.8375C9.625 17.4417 8.4 19.4542 7.49583 21.8167C7.36458 21.5979 7.24792 21.3792 7.13125 21.1458C4.725 16.3333 5.46875 9.74165 10.8354 7.02915C12.5271 6.18332 14.2917 5.8479 15.925 5.8479C17.9667 5.8479 19.8333 6.35832 21.1604 7.02915C24.6021 8.74999 27.3438 8.37082 29.1521 7.64165C29.1229 10.2667 28.8896 14.35 27.7667 16.8146L27.7812 16.7854Z" fill="#2F9983"/>
</svg>
