<svg width="35" height="35" viewBox="0 0 35 35" fill="none" xmlns="http://www.w3.org/2000/svg">
<path d="M5.83333 2.91663H2.91667V30.625C2.91667 31.427 3.57292 32.0833 4.375 32.0833H32.0833V29.1666H5.83333V2.91663Z" fill="#2F9983"/>
<path d="M16.4063 14.9917C17.4854 14.9042 18.5208 15.3417 19.2208 16.1584C19.877 16.9263 20.7085 17.525 21.6449 17.9038C22.5814 18.2826 23.5952 18.4303 24.6008 18.3345C25.6064 18.2386 26.5741 17.9021 27.4222 17.3532C28.2702 16.8044 28.9736 16.0594 29.4729 15.1813L31.9083 10.9375L29.3708 9.49377L26.9354 13.7375C26.3813 14.7 25.4333 15.3125 24.325 15.4292C23.2167 15.5459 22.1667 15.1084 21.4375 14.2625C20.125 12.7313 18.2 11.9292 16.1875 12.075C14.175 12.2209 12.3958 13.3 11.3167 15.0209L7.51042 21.1021L9.98958 22.6479L13.7958 16.5667C14.3792 15.6479 15.3271 15.0646 16.4063 14.9917Z" fill="#2F9983"/>
</svg>
